<svg width="183" height="29" viewBox="0 0 183 29" fill="none" xmlns="http://www.w3.org/2000/svg">
<path d="M2.25367 25.12L0.933672 27.1C1.09367 27.3 1.35367 27.51 1.71367 27.73C2.05367 27.97 2.47367 28.17 2.97367 28.33C3.45367 28.51 3.95367 28.6 4.47367 28.6C5.17367 28.6 5.80367 28.5 6.36367 28.3C6.94367 28.12 7.43367 27.83 7.83367 27.43C8.23367 27.03 8.53367 26.53 8.73367 25.93C8.95367 25.33 9.06367 24.62 9.06367 23.8V0.999999H6.66367V23.5C6.66367 24.48 6.43367 25.17 5.97367 25.57C5.53367 25.99 5.08367 26.2 4.62367 26.2C4.08367 26.2 3.61367 26.1 3.21367 25.9C2.79367 25.72 2.47367 25.46 2.25367 25.12ZM15.3707 11.5C15.3707 9.92 15.7107 8.51 16.3907 7.27C17.0907 6.03 18.0407 5.05 19.2407 4.33C20.4407 3.61 21.8007 3.25 23.3207 3.25C24.8607 3.25 26.2207 3.61 27.4007 4.33C28.6007 5.05 29.5407 6.03 30.2207 7.27C30.9207 8.51 31.2707 9.92 31.2707 11.5C31.2707 13.08 30.9207 14.49 30.2207 15.73C29.5407 16.97 28.6007 17.95 27.4007 18.67C26.2207 19.39 24.8607 19.75 23.3207 19.75C21.8007 19.75 20.4407 19.39 19.2407 18.67C18.0407 17.95 17.0907 16.97 16.3907 15.73C15.7107 14.49 15.3707 13.08 15.3707 11.5ZM12.6707 11.5C12.6707 13.02 12.9307 14.44 13.4507 15.76C13.9907 17.08 14.7407 18.23 15.7007 19.21C16.6607 20.17 17.7907 20.93 19.0907 21.49C20.3907 22.03 21.8007 22.3 23.3207 22.3C24.8607 22.3 26.2707 22.03 27.5507 21.49C28.8507 20.93 29.9807 20.17 30.9407 19.21C31.9007 18.23 32.6407 17.08 33.1607 15.76C33.7007 14.44 33.9707 13.02 33.9707 11.5C33.9707 9.96 33.7007 8.54 33.1607 7.24C32.6407 5.92 31.9007 4.78 30.9407 3.82C29.9807 2.84 28.8507 2.08 27.5507 1.54C26.2707 0.979999 24.8607 0.699999 23.3207 0.699999C21.8007 0.699999 20.3907 0.979999 19.0907 1.54C17.7907 2.08 16.6607 2.84 15.7007 3.82C14.7407 4.78 13.9907 5.92 13.4507 7.24C12.9307 8.54 12.6707 9.96 12.6707 11.5ZM39.5819 10.9H42.9719C44.2319 10.9 45.3219 10.72 46.2419 10.36C47.1819 10 47.9119 9.47 48.4319 8.77C48.9519 8.07 49.2119 7.23 49.2119 6.25C49.2119 5.05 48.9519 4.07 48.4319 3.31C47.9119 2.53 47.1819 1.95 46.2419 1.57C45.3219 1.19 44.2319 0.999999 42.9719 0.999999H37.5719V22H43.2719C44.6319 22 45.8419 21.78 46.9019 21.34C47.9819 20.88 48.8319 20.2 49.4519 19.3C50.0919 18.38 50.4119 17.23 50.4119 15.85C50.4119 14.89 50.2319 14.06 49.8719 13.36C49.5119 12.66 49.0019 12.09 48.3419 11.65C47.7019 11.19 46.9519 10.85 46.0919 10.63C45.2319 10.41 44.2919 10.3 43.2719 10.3H39.5819V11.71H43.2719C43.9519 11.71 44.5719 11.8 45.1319 11.98C45.6919 12.14 46.1719 12.39 46.5719 12.73C46.9919 13.07 47.3119 13.49 47.5319 13.99C47.7519 14.49 47.8619 15.06 47.8619 15.7C47.8619 16.56 47.6619 17.29 47.2619 17.89C46.8819 18.49 46.3419 18.95 45.6419 19.27C44.9619 19.59 44.1719 19.75 43.2719 19.75H40.1219V3.25H42.9719C44.0319 3.25 44.9119 3.53 45.6119 4.09C46.3119 4.63 46.6619 5.4 46.6619 6.4C46.6619 7.06 46.5019 7.62 46.1819 8.08C45.8619 8.54 45.4219 8.89 44.8619 9.13C44.3019 9.37 43.6719 9.49 42.9719 9.49H39.5819V10.9Z" fill="#5AD94F"/>
<path d="M62.9799 22V0.181818H65.622V9.89773H77.2555V0.181818H79.8976V22H77.2555V12.2415H65.622V22H62.9799ZM99.5051 0.181818H102.147V14.6278C102.147 16.1193 101.796 17.451 101.093 18.6229C100.396 19.7876 99.4128 20.7074 98.1415 21.3821C96.8702 22.0497 95.3787 22.3835 93.6671 22.3835C91.9554 22.3835 90.464 22.0497 89.1926 21.3821C87.9213 20.7074 86.9341 19.7876 86.231 18.6229C85.535 17.451 85.187 16.1193 85.187 14.6278V0.181818H87.829V14.4148C87.829 15.4801 88.0634 16.4283 88.5321 17.2592C89.0009 18.0831 89.6685 18.733 90.535 19.2088C91.4086 19.6776 92.4526 19.9119 93.6671 19.9119C94.8816 19.9119 95.9256 19.6776 96.7992 19.2088C97.6728 18.733 98.3404 18.0831 98.802 17.2592C99.2708 16.4283 99.5051 15.4801 99.5051 14.4148V0.181818ZM124.724 0.181818V22H122.168L110.278 4.86932H110.065V22H107.423V0.181818H109.98L121.912 17.3551H122.125V0.181818H124.724ZM128.818 2.52557V0.181818H145.182V2.52557H138.321V22H135.679V2.52557H128.818ZM149.259 22V0.181818H162.427V2.52557H151.901V9.89773H161.745V12.2415H151.901V19.6562H162.597V22H149.259ZM167.189 22V0.181818H174.561C176.266 0.181818 177.665 0.473011 178.759 1.0554C179.852 1.63068 180.662 2.42258 181.188 3.43111C181.713 4.43963 181.976 5.58665 181.976 6.87216C181.976 8.15767 181.713 9.29758 181.188 10.2919C180.662 11.2862 179.856 12.0675 178.769 12.6357C177.683 13.1967 176.294 13.4773 174.604 13.4773H168.638V11.0909H174.518C175.683 11.0909 176.621 10.9205 177.331 10.5795C178.048 10.2386 178.567 9.75568 178.886 9.13068C179.213 8.49858 179.376 7.74574 179.376 6.87216C179.376 5.99858 179.213 5.23508 178.886 4.58168C178.56 3.92827 178.038 3.42401 177.32 3.06889C176.603 2.70668 175.655 2.52557 174.476 2.52557H169.831V22H167.189ZM177.459 12.1989L182.828 22H179.76L174.476 12.1989H177.459Z" fill="black" fill-opacity="0.63"/>
</svg>
